<svg id="Layer_1" data-name="Layer 1" xmlns="http://www.w3.org/2000/svg" viewBox="0 0 352.48 520.53"><defs><style>.cls-1{fill:#fbb03b;stroke:#666;stroke-miterlimit:10;stroke-width:2px;}</style></defs><path class="cls-1" d="M144.77,311.09c0-163.75,53.14-259.27,175.24-259.27s175.23,95.52,175.23,259.27S442.1,570.35,320,570.35,144.77,474.83,144.77,311.09Zm62.48-40.94V352c0,16.52.72,32.32,2.87,46.68L417.68,171.76c-16.52-43.09-48.12-67.51-97.67-67.51C239.57,104.25,207.25,169.6,207.25,270.15ZM432.76,352V270.15c0-16.52-.72-32.32-2.87-46.68L222.33,450.41c16.52,43.09,48.12,67.51,97.68,67.51C400.44,517.92,432.76,452.57,432.76,352Z" transform="translate(-143.77 -50.82)"/></svg>